<svg width="77" height="43" viewBox="0 0 77 43" fill="none" xmlns="http://www.w3.org/2000/svg">
<mask id="path-1-inside-1_2_6" fill="white">
<path d="M0 21.5L38.5 0L77 21.5L38.5 43L0 21.5Z"/>
</mask>
<path d="M0 21.5L38.5 0L77 21.5L38.5 43L0 21.5Z" fill="white"/>
<path d="M0 21.5L-0.487567 20.6269L-2.051 21.5L-0.487567 22.3731L0 21.5ZM38.5 0L38.9876 -0.873085L38.5 -1.14536L38.0124 -0.873085L38.5 0ZM77 21.5L77.4876 22.3731L79.051 21.5L77.4876 20.6269L77 21.5ZM38.5 43L38.0124 43.8731L38.5 44.1454L38.9876 43.8731L38.5 43ZM0 21.5L0.487567 22.3731L38.9876 0.873085L38.5 0L38.0124 -0.873085L-0.487567 20.6269L0 21.5ZM38.5 0L38.0124 0.873085L76.5124 22.3731L77 21.5L77.4876 20.6269L38.9876 -0.873085L38.5 0ZM77 21.5L76.5124 20.6269L38.0124 42.1269L38.5 43L38.9876 43.8731L77.4876 22.3731L77 21.5ZM38.5 43L38.9876 42.1269L0.487567 20.6269L0 21.5L-0.487567 22.3731L38.0124 43.8731L38.5 43Z" fill="#454545" mask="url(#path-1-inside-1_2_6)"/>
</svg>
